<?xml version="1.0" encoding="UTF-8" standalone="no"?>
<!-- Created with Inkscape (http://www.inkscape.org/) -->

<svg
   width="405.16602mm"
   height="366.69006mm"
   viewBox="0 0 405.16602 366.69006"
   version="1.1"
   id="svg233181"
   inkscape:version="1.1.1 (3bf5ae0d25, 2021-09-20)"
   sodipodi:docname="amigotka logo.svg"
   inkscape:export-filename="C:\Users\Asia\Desktop\amigotka logo 400px.png"
   inkscape:export-xdpi="25.076139"
   inkscape:export-ydpi="25.076139"
   xmlns:inkscape="http://www.inkscape.org/namespaces/inkscape"
   xmlns:sodipodi="http://sodipodi.sourceforge.net/DTD/sodipodi-0.dtd"
   xmlns="http://www.w3.org/2000/svg"
   xmlns:svg="http://www.w3.org/2000/svg">
  <sodipodi:namedview
     id="namedview233183"
     pagecolor="#ffffff"
     bordercolor="#666666"
     borderopacity="1.0"
     inkscape:pageshadow="2"
     inkscape:pageopacity="0.0"
     inkscape:pagecheckerboard="0"
     inkscape:document-units="mm"
     showgrid="false"
     units="mm"
     fit-margin-top="0"
     fit-margin-left="0"
     fit-margin-right="0"
     fit-margin-bottom="0"
     inkscape:zoom="0.192"
     inkscape:cx="1565.1042"
     inkscape:cy="692.70833"
     inkscape:window-width="1366"
     inkscape:window-height="716"
     inkscape:window-x="-8"
     inkscape:window-y="-8"
     inkscape:window-maximized="1"
     inkscape:current-layer="layer1" />
  <defs
     id="defs233178" />
  <g
     inkscape:label="Warstwa 1"
     inkscape:groupmode="layer"
     id="layer1"
     transform="translate(-9.0073894,-28.959745)">
    <path
       style="fill:#e67ba5;fill-opacity:1;stroke:none;stroke-width:3.765;stroke-linecap:butt;stroke-linejoin:miter;stroke-miterlimit:4;stroke-dasharray:none;stroke-opacity:1"
       d="m 35.584625,63.275185 c 14.627317,74.567295 39.40534,128.797635 93.050255,159.572005 53.64492,30.77436 128.61364,42.89289 195.62081,56.55153 11.44939,-13.37635 23.64049,-17.95021 29.31962,-27.38041 C 248.48795,238.66841 200.43607,242.21166 142.94556,198.08094 96.330285,162.29825 66.668585,107.87403 56.555075,44.402255 Z"
       id="path127879-7-7"
       sodipodi:nodetypes="csccacc" />
    <path
       style="fill:#e67ba5;fill-opacity:1;stroke:none;stroke-width:3.765;stroke-linecap:butt;stroke-linejoin:miter;stroke-miterlimit:4;stroke-dasharray:none;stroke-opacity:1"
       d="m 13.406245,99.190164 c -11.20366,48.799366 -1.03567,84.547616 30.84462,119.896116 36.92887,35.5184 80.222635,54.2353 105.851285,67.64994 36.87142,19.2994 142.98946,23.5847 142.82136,22.0719 l 21.69448,-21.8017 c -71.84404,2.038 -132.85237,-7.9961 -220.774175,-59.48206 -28.43509,-25.2999 -65.30676,-58.84594 -67.8036,-152.898715 z"
       id="path134980-8-2"
       sodipodi:nodetypes="ccsccccc" />
    <path
       style="fill:#e67ba5;fill-opacity:1;stroke:none;stroke-width:3.765;stroke-linecap:butt;stroke-linejoin:miter;stroke-miterlimit:4;stroke-dasharray:none;stroke-opacity:1"
       d="m 363.04739,42.413615 c 24.34118,13.5795 34.47958,32.81365 34.47958,32.81365 l -1.05833,0.52917 -25.29146,13.519519 v 0 c 0,0 4.9699,12.133196 0,0 C 358.9418,52.479475 335.8,36.740975 308.11579,28.959745 c 14.32999,0.7435 34.8605,2.25657 54.9316,13.45387 z"
       id="path135609-7-6"
       sodipodi:nodetypes="sccccccs" />
    <path
       style="fill:#e67ba5;fill-opacity:1;stroke:none;stroke-width:3.765;stroke-linecap:butt;stroke-linejoin:miter;stroke-miterlimit:4;stroke-dasharray:none;stroke-opacity:1"
       d="m 260.85523,190.29971 c 73.31988,-8.6272 75.78403,-9.51026 151.97576,-38.76921 l 1.34241,-23.71057 c -41.32326,26.64672 -164.24443,47.2779 -196.28515,44.78803 z"
       id="path144636-2-6"
       sodipodi:nodetypes="ccccc" />
    <path
       style="fill:#e67ba5;fill-opacity:1;stroke:none;stroke-width:3.765;stroke-linecap:butt;stroke-linejoin:miter;stroke-miterlimit:4;stroke-dasharray:none;stroke-opacity:1"
       d="m 192.98957,161.18649 c 74.53961,-4.14061 94.38887,-6.89472 128.63152,-19.03217 45.84392,-16.24957 73.14771,-21.33722 90.59054,-32.75802 L 405.01434,89.672834 C 320.74986,139.03326 186.0821,145.84493 162.64453,142.86994 Z"
       id="path146333-0-4"
       sodipodi:nodetypes="cscccc" />
    <path
       style="fill:#e67ba5;fill-opacity:1;stroke:none;stroke-width:3.765;stroke-linecap:butt;stroke-linejoin:miter;stroke-miterlimit:4;stroke-dasharray:none;stroke-opacity:1"
       d="m 68.330605,39.467475 c 17.4517,62.725885 57.460365,134.296065 105.224105,160.820695 49.79628,27.65336 130.51347,41.12858 194.29187,37.70795 l 14.5457,-18.75969 c -65.54777,7.97255 -153.2805,-22.23516 -193.09442,-42.77225 -45.38079,-23.40863 -66.80035,-71.67669 -96.761535,-145.801745 -3.57774,1.39768 -20.29392,6.23732 -24.20572,8.80504 z"
       id="path153530-2-4"
       sodipodi:nodetypes="csccscc" />
    <path
       style="fill:#e67ba5;fill-opacity:1;stroke:none;stroke-width:3.765;stroke-linecap:butt;stroke-linejoin:miter;stroke-miterlimit:4;stroke-dasharray:none;stroke-opacity:1"
       d="m 202.00022,108.06646 c -13.30972,5.70287 -20.46391,12.92214 -20.46391,12.92214 0,0 15.4136,-4.37533 0,0 l -1.74489,15.79115 c 28.82968,-12.80355 27.06689,-6.78445 43.50356,-6.30253 z"
       id="path156799-0-5"
       sodipodi:nodetypes="cccccc" />
    <path
       style="fill:#e67ba5;fill-opacity:1;stroke:none;stroke-width:3.765;stroke-linecap:butt;stroke-linejoin:miter;stroke-miterlimit:4;stroke-dasharray:none;stroke-opacity:1"
       d="m 196.15801,314.75682 c -18.98354,29.7728 -30.69623,27.4154 -30.69623,27.4154 v 0 l 17.19137,19.2071 c 0,0 24.93454,-12.6118 39.66916,-41.1758 z"
       id="path157204-8-1"
       sodipodi:nodetypes="cscccc" />
    <path
       style="fill:#e67ba5;fill-opacity:1;stroke:none;stroke-width:3.765;stroke-linecap:butt;stroke-linejoin:miter;stroke-miterlimit:4;stroke-dasharray:none;stroke-opacity:1"
       d="m 354.46524,98.200084 c -5.65437,-23.313619 -22.55008,-39.583109 -40.34567,-49.998419 -15.89664,-9.30391 -27.3467,-16.27615 -27.3467,-15.90718 v 0 c -6.56209,2.4447 -20.84125,7.39228 -27.40334,11.23068 4.06709,-2.29347 64.83364,31.25171 69.89646,64.186675 z"
       id="path157381-5-9"
       sodipodi:nodetypes="csscccc" />
    <path
       style="fill:#e67ba5;fill-opacity:1;stroke:none;stroke-width:2.64071;stroke-linecap:butt;stroke-linejoin:miter;stroke-miterlimit:4;stroke-dasharray:none;stroke-opacity:1"
       d="m 263.22235,125.85062 c -2.67432,-4.26486 -8.96217,-16.10099 -15.8544,-23.03224 -8.51651,-8.564716 -26.59013,-17.243515 -26.59013,-17.243515 v 0 l -8.83132,17.431075 c 14.82565,6.07833 21.41438,15.03741 25.40067,26.01174 z"
       id="path161726-1-6"
       sodipodi:nodetypes="csccccc"
       inkscape:transform-center-x="0.88163579"
       inkscape:transform-center-y="1.8576723" />
    <path
       style="fill:#e67ba5;fill-opacity:1;stroke:none;stroke-width:3.765;stroke-linecap:butt;stroke-linejoin:miter;stroke-miterlimit:4;stroke-dasharray:none;stroke-opacity:1"
       d="m 211.16589,395.64982 c 19.89087,-21.804 64.52049,-73.4275 64.52049,-73.4275 v 0 l -30.44454,-2.346 c -15.83354,30.232 -28.81557,33.5314 -53.22227,51.7901 z"
       id="path162055-8-6"
       sodipodi:nodetypes="cccccc"
       inkscape:transform-center-x="0.026363648"
       inkscape:transform-center-y="-0.74893548" />
    <path
       style="fill:#e67ba5;fill-opacity:1;stroke:none;stroke-width:3.765;stroke-linecap:butt;stroke-linejoin:miter;stroke-miterlimit:4;stroke-dasharray:none;stroke-opacity:1"
       d="M 307.88848,113.38023 C 301.5942,95.017744 286.04487,81.575015 272.74835,70.259625 259.56601,59.041395 245.23446,53.775155 245.23446,53.775155 l -15.38452,16.33269 c -0.10924,-0.50768 41.47451,18.102969 53.48802,50.484605 z"
       id="path176570-6-8"
       sodipodi:nodetypes="cscccc" />
    <path
       style="fill:#e67ba5;fill-opacity:1;stroke:none;stroke-width:3.765;stroke-linecap:butt;stroke-linejoin:miter;stroke-miterlimit:4;stroke-dasharray:none;stroke-opacity:1"
       d="m 132.15023,311.71042 c 25.32122,-12.5958 17.91417,-13.1599 17.91417,-13.1599 v 0 l 26.98894,11.7376 c -6.45014,6.7781 -4.94928,7.3383 -22.52006,22.4815 z"
       id="path191177-3-4"
       sodipodi:nodetypes="cscccc"
       inkscape:transform-center-x="-4.4263756"
       inkscape:transform-center-y="-4.3502546" />
    <path
       style="fill:#e67ba5;fill-opacity:1;stroke:none;stroke-width:3.765;stroke-linecap:butt;stroke-linejoin:miter;stroke-miterlimit:4;stroke-dasharray:none;stroke-opacity:1"
       d="m 152.2064,119.70849 c 14.69976,-35.275595 46.15143,-42.111835 46.15143,-42.111835 v 0 l 8.18782,16.925209 c -0.0676,4.2861 -25.72818,4.53444 -42.91234,41.150006 z"
       id="path191259-9-3"
       sodipodi:nodetypes="cccccc"
       inkscape:transform-center-x="-5.2970267"
       inkscape:transform-center-y="11.985722" />
    <path
       style="fill:#e67ba5;fill-opacity:1;stroke:none;stroke-width:3.765;stroke-linecap:butt;stroke-linejoin:miter;stroke-miterlimit:4;stroke-dasharray:none;stroke-opacity:1"
       d="m 94.436305,278.57472 c 20.505325,-2.24989 15.797215,-2.03594 15.797215,-2.03594 v 0 l 24.77999,18.06534 c -14.40943,7.6531 -14.40943,7.6531 -14.40943,7.6531 z"
       id="path196057-6"
       sodipodi:nodetypes="cscccc"
       inkscape:transform-center-x="-1.5672937"
       inkscape:transform-center-y="-1.8310446" />
    <path
       style="fill:#e67ba5;fill-opacity:1;stroke:none;stroke-width:3.765;stroke-linecap:butt;stroke-linejoin:miter;stroke-miterlimit:4;stroke-dasharray:none;stroke-opacity:1"
       d="m 331.02492,209.47923 c 31.25317,-1.36995 53.25285,-8.15473 69.09978,-15.59445 l 8.45345,-25.52575 c -16.16782,12.41251 -63.61075,26.53664 -117.91113,29.59916 z"
       id="path203492"
       sodipodi:nodetypes="ccccc" />
    <path
       style="fill:#e67ba5;fill-opacity:1;stroke:none;stroke-width:3.765;stroke-linecap:butt;stroke-linejoin:miter;stroke-miterlimit:4;stroke-dasharray:none;stroke-opacity:1"
       d="m 170.49779,48.409425 c -11.33699,1.56447 -37.87225,34.91669 -37.58092,45.130899 0,0 11.99977,21.626966 0,0 l 11.99977,21.626966 c 7.74237,-29.181255 25.18741,-42.044445 42.74512,-51.433925 z"
       id="path206022"
       sodipodi:nodetypes="cscccc" />
    <path
       style="fill:#e67ba5;fill-opacity:1;stroke:none;stroke-width:3.765;stroke-linecap:butt;stroke-linejoin:miter;stroke-miterlimit:4;stroke-dasharray:none;stroke-opacity:1"
       d="m 113.8476,50.570815 c 1.59049,-15.11564 12.48681,-20.62987 12.48681,-20.62987 v 0 c 13.68526,2.44895 21.97654,6.24639 31.02228,9.85522 v 0 c 0,0 -30.49312,-9.85522 0,0 -17.58265,8.43605 -17.7606,10.27372 -29.83314,40.53625 l -13.67593,-29.7616 z"
       id="path222893"
       sodipodi:nodetypes="ccccccccc" />
  </g>
</svg>
