<?xml version="1.0" encoding="UTF-8" standalone="no"?>
<svg
   xmlns:dc="http://purl.org/dc/elements/1.1/"
   xmlns:cc="http://creativecommons.org/ns#"
   xmlns:rdf="http://www.w3.org/1999/02/22-rdf-syntax-ns#"
   xmlns:svg="http://www.w3.org/2000/svg"
   xmlns="http://www.w3.org/2000/svg"
   xmlns:sodipodi="http://sodipodi.sourceforge.net/DTD/sodipodi-0.dtd"
   xmlns:inkscape="http://www.inkscape.org/namespaces/inkscape"
   width="149.10703mm"
   height="150.42606mm"
   viewBox="0 0 149.10703 150.42606"
   version="1.1"
   id="svg8"
   inkscape:version="1.0.1 (3bc2e81, 2020-09-07)"
   sodipodi:docname="rose4_logo.svg">
  <defs
     id="defs2">
    <filter
       inkscape:collect="always"
       style="color-interpolation-filters:sRGB"
       id="filter933"
       x="-0.012236269"
       width="1.0244725"
       y="-0.0063950484"
       height="1.0127901">
      <feGaussianBlur
         inkscape:collect="always"
         stdDeviation="0.11279184"
         id="feGaussianBlur935" />
    </filter>
    <filter
       inkscape:collect="always"
       style="color-interpolation-filters:sRGB"
       id="filter937"
       x="-0.0067218509"
       width="1.0134437"
       y="-0.011194862"
       height="1.0223897">
      <feGaussianBlur
         inkscape:collect="always"
         stdDeviation="0.066231994"
         id="feGaussianBlur939" />
    </filter>
    <filter
       inkscape:collect="always"
       style="color-interpolation-filters:sRGB"
       id="filter941"
       x="-0.0093882364"
       width="1.0187765"
       y="-0.0075999993"
       height="1.0152">
      <feGaussianBlur
         inkscape:collect="always"
         stdDeviation="0.066486346"
         id="feGaussianBlur943" />
    </filter>
    <filter
       inkscape:collect="always"
       style="color-interpolation-filters:sRGB"
       id="filter945"
       x="-0.0057775422"
       width="1.0115551"
       y="-0.015381951"
       height="1.0307639">
      <feGaussianBlur
         inkscape:collect="always"
         stdDeviation="0.091958937"
         id="feGaussianBlur947" />
    </filter>
    <filter
       inkscape:collect="always"
       style="color-interpolation-filters:sRGB"
       id="filter949"
       x="-0.0097841209"
       width="1.0195682"
       y="-0.0073589574"
       height="1.0147179">
      <feGaussianBlur
         inkscape:collect="always"
         stdDeviation="0.20604319"
         id="feGaussianBlur951" />
    </filter>
    <filter
       inkscape:collect="always"
       style="color-interpolation-filters:sRGB"
       id="filter953"
       x="-0.0070112382"
       width="1.0140225"
       y="-0.010474815"
       height="1.0209496">
      <feGaussianBlur
         inkscape:collect="always"
         stdDeviation="0.023593214"
         id="feGaussianBlur955" />
    </filter>
    <filter
       inkscape:collect="always"
       style="color-interpolation-filters:sRGB"
       id="filter957"
       x="-0.0074081735"
       width="1.0148163"
       y="-0.0096984558"
       height="1.0193969">
      <feGaussianBlur
         inkscape:collect="always"
         stdDeviation="0.047782984"
         id="feGaussianBlur959" />
    </filter>
    <filter
       inkscape:collect="always"
       style="color-interpolation-filters:sRGB"
       id="filter961"
       x="-0.0096661618"
       width="1.0193323"
       y="-0.0074271273"
       height="1.0148543">
      <feGaussianBlur
         inkscape:collect="always"
         stdDeviation="0.14374634"
         id="feGaussianBlur963" />
    </filter>
    <filter
       inkscape:collect="always"
       style="color-interpolation-filters:sRGB"
       id="filter965"
       x="-0.0071571685"
       width="1.0143143"
       y="-0.010165166"
       height="1.0203303">
      <feGaussianBlur
         inkscape:collect="always"
         stdDeviation="0.17223089"
         id="feGaussianBlur967" />
    </filter>
    <filter
       inkscape:collect="always"
       style="color-interpolation-filters:sRGB"
       id="filter969"
       x="-0.0069234484"
       width="1.0138469"
       y="-0.010677083"
       height="1.0213542">
      <feGaussianBlur
         inkscape:collect="always"
         stdDeviation="0.069049585"
         id="feGaussianBlur971" />
    </filter>
    <filter
       inkscape:collect="always"
       style="color-interpolation-filters:sRGB"
       id="filter973"
       x="-0.0084414326"
       width="1.0168829"
       y="-0.0083589721"
       height="1.0167179">
      <feGaussianBlur
         inkscape:collect="always"
         stdDeviation="0.21398536"
         id="feGaussianBlur975" />
    </filter>
    <filter
       inkscape:collect="always"
       style="color-interpolation-filters:sRGB"
       id="filter977"
       x="-0.0058054656"
       width="1.0116109"
       y="-0.015187467"
       height="1.0303749">
      <feGaussianBlur
         inkscape:collect="always"
         stdDeviation="0.14803943"
         id="feGaussianBlur979" />
    </filter>
    <filter
       inkscape:collect="always"
       style="color-interpolation-filters:sRGB"
       id="filter981"
       x="-0.013571976"
       width="1.027144"
       y="-0.0060822071"
       height="1.0121644">
      <feGaussianBlur
         inkscape:collect="always"
         stdDeviation="0.17492145"
         id="feGaussianBlur983" />
    </filter>
    <filter
       inkscape:collect="always"
       style="color-interpolation-filters:sRGB"
       id="filter985"
       x="-0.0057179557"
       width="1.0114359"
       y="-0.015820892"
       height="1.0316418">
      <feGaussianBlur
         inkscape:collect="always"
         stdDeviation="0.20385461"
         id="feGaussianBlur987" />
    </filter>
    <filter
       inkscape:collect="always"
       style="color-interpolation-filters:sRGB"
       id="filter989"
       x="-0.0099082803"
       width="1.0198166"
       y="-0.0072902477"
       height="1.0145805">
      <feGaussianBlur
         inkscape:collect="always"
         stdDeviation="0.16840936"
         id="feGaussianBlur991" />
    </filter>
    <filter
       inkscape:collect="always"
       style="color-interpolation-filters:sRGB"
       id="filter993"
       x="-0.0056270231"
       width="1.011254"
       y="-0.016561397"
       height="1.0331228">
      <feGaussianBlur
         inkscape:collect="always"
         stdDeviation="0.21605989"
         id="feGaussianBlur995" />
    </filter>
  </defs>
  <sodipodi:namedview
     id="base"
     pagecolor="#ffffff"
     bordercolor="#666666"
     borderopacity="1.0"
     inkscape:pageopacity="0.0"
     inkscape:pageshadow="2"
     inkscape:zoom="0.8359833"
     inkscape:cx="284.18443"
     inkscape:cy="322.61002"
     inkscape:document-units="mm"
     inkscape:current-layer="layer1"
     inkscape:document-rotation="0"
     showgrid="false"
     inkscape:window-width="1366"
     inkscape:window-height="719"
     inkscape:window-x="0"
     inkscape:window-y="25"
     inkscape:window-maximized="1"
     inkscape:object-nodes="false"
     inkscape:snap-nodes="false"
     showguides="true"
     fit-margin-top="0"
     fit-margin-left="0"
     fit-margin-right="0"
     fit-margin-bottom="0" />
  <metadata
     id="metadata5">
    <rdf:RDF>
      <cc:Work
         rdf:about="">
        <dc:format>image/svg+xml</dc:format>
        <dc:type
           rdf:resource="http://purl.org/dc/dcmitype/StillImage" />
        <dc:title></dc:title>
      </cc:Work>
    </rdf:RDF>
  </metadata>
  <g
     inkscape:label="Layer 1"
     inkscape:groupmode="layer"
     id="layer1"
     transform="translate(-0.23197135,-0.13594651)"
     style="opacity:1">
    <path
       style="display:inline;opacity:1;fill:#d37998;fill-opacity:1;stroke:none;stroke-width:0.264583px;stroke-linecap:butt;stroke-linejoin:miter;stroke-opacity:1;filter:url(#filter993)"
       d="m 99.335406,103.75836 c -7.562838,7.87571 -31.666382,7.49996 -38.475412,5.82177 C 52.909478,107.62061 50.125695,102.14979 41.849195,99.236496 32.642768,95.995884 14.273465,92.310975 7.3878865,97.732095 6.1105804,93.046902 20.719117,78.88279 33.175043,79.26427 c 13.469403,0.412517 19.775679,6.638631 26.450404,8.845809 15.844391,5.23937 37.390641,-4.954633 37.390641,-4.954633 -6.971941,9.632536 3.710702,19.153964 2.319318,20.602914 z"
       id="path32"
       sodipodi:nodetypes="ssscsscs"
       inkscape:label="path32" />
    <path
       style="display:inline;opacity:1;fill:#d37998;fill-opacity:1;stroke:none;stroke-width:0.264583px;stroke-linecap:butt;stroke-linejoin:miter;stroke-opacity:1;filter:url(#filter989)"
       d="m 101.9782,101.82779 c 0.44095,1.74603 20.74562,-4.650632 24.54974,-18.293824 2.43215,-8.722741 -0.22722,-12.087108 3.31375,-20.331592 5.80747,-13.521568 16.57779,-25.313776 -3.48832,-7.519506 -10.19467,9.040448 -6.04041,7.375702 -13.96639,15.013277 -9.36567,9.024862 -14.774555,14.131172 -15.171062,19.548322 -0.396517,5.41715 3.690162,11.145133 4.762282,11.583323 z"
       id="path34"
       sodipodi:nodetypes="csssssc" />
    <path
       style="display:inline;opacity:1;fill:#d37998;fill-opacity:1;stroke:none;stroke-width:0.264583px;stroke-linecap:butt;stroke-linejoin:miter;stroke-opacity:1;filter:url(#filter985)"
       d="m 62.804078,76.180843 c 6.698787,3.214364 31.262448,4.465838 27.642609,6.172959 -4.178999,1.970818 -15.442881,5.2725 -21.491813,4.439493 C 59.359933,85.471974 39.854215,74.885236 31.724364,76.312905 17.941165,78.733333 2.9035862,90.413447 5.5501917,71.584424 13.725455,62.470099 -0.94276453,64.013707 9.0047676,56.00103 13.46639,60.433248 23.64674,63.384002 30.29844,63.724537 c 3.285317,0.168193 -0.592008,-0.284082 7.7669,3.189368 12.415276,5.159028 17.085542,5.59459 24.738738,9.266938 z"
       id="path36"
       sodipodi:nodetypes="ssssccsss" />
    <path
       style="display:inline;opacity:1;fill:#d37998;fill-opacity:1;stroke:none;stroke-width:0.264583px;stroke-linecap:butt;stroke-linejoin:miter;stroke-opacity:1;filter:url(#filter981)"
       d="m 88.743216,29.394155 c -2.717075,10.365787 -7.562851,18.096416 -7.562851,18.096416 -2.555829,9.233897 1.632438,17.031209 3.802061,19.87665 2.609986,3.422982 8.92162,13.810907 8.269063,11.823289 -3.161302,-9.629115 0.888077,-13.756548 6.675344,-27.150795 3.935217,-9.107755 0.646967,-13.918987 4.875177,-23.120414 2.77811,-4.08335 10.03786,-8.384692 4.45372,-15.6891 -0.82348,-2.287487 -14.755947,-3.7878154 -18.288616,-2.067883 -3.756049,1.82869 -2.028841,11.686873 -2.223898,18.231837 z"
       id="path40"
       sodipodi:nodetypes="ccsssccsc" />
    <g
       id="g927"
       style="display:inline;opacity:1;fill:#d37998;fill-opacity:1;filter:url(#filter977);stroke:none"
       transform="translate(-16.404171,-21.166674)">
      <path
         style="fill:#d37998;fill-opacity:1;stroke:none;stroke-width:0.265;stroke-linecap:butt;stroke-linejoin:miter;stroke-miterlimit:4;stroke-dasharray:none;stroke-opacity:1"
         d="M 97.438313,29.345048 C 84.860318,24.474035 60.73242,23.542189 52.186552,25.825957 c -3.63701,0.971942 -18.705201,16.415068 -15.505481,21.602226 1.412462,2.289783 9.089022,-2.648853 9.089022,-2.648853 0,0 3.880725,-12.268943 9.738323,-13.922232 5.857599,-1.653291 28.780592,2.744124 32.29025,3.177157 3.509658,0.433033 9.639647,-4.689207 9.639647,-4.689207 z"
         id="path44"
         sodipodi:nodetypes="csscssc" />
    </g>
    <path
       style="display:inline;opacity:1;fill:#d37998;fill-opacity:1;stroke:none;stroke-width:0.264583px;stroke-linecap:butt;stroke-linejoin:miter;stroke-opacity:1;filter:url(#filter973)"
       d="m 78.391986,15.667976 c 0,0 -4.338483,2.569983 -6.292171,6.243476 -1.953688,3.673492 -2.542545,8.690511 -3.710072,9.986774 C 53.094697,48.879762 26.5294,44.621614 26.5294,44.621614 c 5.36438,8.07747 16.021151,6.245254 24.596197,9.190407 4.672304,1.604732 8.796985,10.249973 12.253166,16.611345 3.703527,6.816626 21.295284,8.007587 23.989229,5.119096 -1.702097,-1.667585 -13.69644,-18.515576 -8.483689,-30.806932 2.567394,-6.053762 7.144298,-7.073071 7.369155,-19.110261 0.10764,-5.762413 -3.533109,-10.801555 -7.861472,-9.957293 z"
       id="path48"
       sodipodi:nodetypes="csscsscssc" />
    <path
       style="display:inline;opacity:1;fill:#d37998;fill-opacity:1;stroke:none;stroke-width:0.264583px;stroke-linecap:butt;stroke-linejoin:miter;stroke-opacity:1;filter:url(#filter969)"
       d="m 40.15517,28.198164 c 5.475642,2.00779 13.697168,2.090055 18.987791,-1.731747 8.084417,-5.839963 4.731432,-15.319567 0.720675,-11.572458 -1.194993,1.116439 -0.733824,3.476536 -1.845889,5.542211 -0.807289,1.499551 -3.181708,3.08184 -5.224318,4.50643 -2.74799,1.916547 -10.589536,2.268306 -12.638259,3.255564 z"
       id="path50"
       sodipodi:nodetypes="cssssc" />
    <path
       style="display:inline;opacity:1;fill:#d37998;fill-opacity:1;stroke:none;stroke-width:0.264583px;stroke-linecap:butt;stroke-linejoin:miter;stroke-opacity:1;filter:url(#filter965)"
       d="M 31.474185,60.890997 C 25.00271,60.429254 15.026767,59.606444 10.82961,53.430208 8.3154152,51.707609 3.3068509,50.836772 3.2534749,48.603102 3.1152752,42.81965 17.988689,31.96989 23.772743,31.859749 c 4.962936,0.95557 -14.6158274,13.464329 13.19683,21.630531 5.645588,1.657627 7.293417,-0.902216 13.233844,4.01805 4.394037,3.63944 10.802967,15.015207 10.802967,15.015207 -6.85153,-2.305016 -5.306306,-1.641059 -12.104449,-4.218557 -8.47323,-2.634117 -11.066532,-3.534644 -17.42775,-7.413983 z"
       id="path52"
       sodipodi:nodetypes="ccscssccc" />
    <path
       style="display:inline;opacity:1;fill:#d37998;fill-opacity:1;stroke:none;stroke-width:0.264583px;stroke-linecap:butt;stroke-linejoin:miter;stroke-opacity:1;filter:url(#filter961)"
       d="m 118.84039,36.922737 c 4.82998,-3.798812 16.93249,-32.7640664 3.08729,-34.6798805 -8.92729,-1.2353064 -23.486841,2.5906285 -29.261398,5.486112 0,0 24.869658,-2.4678678 22.900988,4.7098885 -3.27931,11.956333 -3.34077,10.555545 -7.47625,16.768115 -2.88699,4.337008 -4.33854,19.203668 -4.33854,19.203668 0.0646,0.742619 10.80777,-8.121547 15.08791,-11.487903 z"
       id="path54"
       sodipodi:nodetypes="sscsscs" />
    <path
       style="display:inline;opacity:1;fill:#d37998;fill-opacity:1;stroke:none;stroke-width:0.264583px;stroke-linecap:butt;stroke-linejoin:miter;stroke-opacity:1;filter:url(#filter957)"
       d="m 45.443284,16.216368 c 3.63302,-0.30052 3.887115,-1.565237 2.935973,-2.663466 -0.951142,-1.098228 -3.076719,-1.908283 -4.295448,-1.66453 -4.060671,0.812159 -11.586691,10.589289 -10.628906,11.780924 3.535139,-2.401383 4.462962,-3.05681 7.199053,-5.378053 1.763209,-1.49587 4.789328,-2.074875 4.789328,-2.074875 z"
       id="path76"
       sodipodi:nodetypes="csscsc" />
    <path
       style="display:inline;opacity:1;fill:#d37998;fill-opacity:1;stroke:none;stroke-width:0.264583px;stroke-linecap:butt;stroke-linejoin:miter;stroke-opacity:1;filter:url(#filter953)"
       d="m 42.0361,21.282612 c -0.01958,1.009217 2.540133,2.823009 3.783061,2.142281 1.242925,-0.680725 5.590567,-5.839444 3.913042,-5.202212 -1.439053,0.546645 -3.975631,2.131213 -3.271409,1.864632 1.517309,-0.574373 -4.410893,0.483895 -4.424694,1.195299 z"
       id="path78"
       sodipodi:nodetypes="sssss" />
    <path
       style="display:inline;opacity:1;fill:#d37998;fill-opacity:1;stroke:none;stroke-width:0.264583px;stroke-linecap:butt;stroke-linejoin:miter;stroke-opacity:1;filter:url(#filter949)"
       d="m 130.72328,22.793274 c -3.57464,4.334315 -5.70964,14.242611 -10.10898,16.665039 -26.825824,14.771241 -30.187573,38.818553 -20.47327,39.713347 0.16501,0.456387 8.94496,-7.422594 14.48422,-14.558432 5.53926,-7.135836 8.15515,-9.380758 20.27349,-20.044329 3.47661,-3.059252 4.36526,-10.851197 4.05771,-17.023015 -0.30754,-6.171818 6.75403,-15.552808 6.75403,-15.552808 0,0 -9.75051,4.450606 -14.9872,10.800198 z"
       id="path80"
       sodipodi:nodetypes="sscssscs" />
    <path
       style="display:inline;opacity:1;fill:#d37998;fill-opacity:1;stroke:none;stroke-width:0.264583px;stroke-linecap:butt;stroke-linejoin:miter;stroke-opacity:1;filter:url(#filter945)"
       d="m 30.328019,32.328935 c 0,0 2.87651,3.631972 14.580983,2.213279 11.704471,-1.418696 16.837689,-4.686393 19.390947,-6.43273 2.553261,-1.746337 -1.393634,6.433839 -9.888227,9.689153 -8.494591,3.255314 -20.618143,6.71918 -25.899187,2.387661 -3.364847,-2.759852 -0.962324,-3.342947 1.815484,-7.857363 z"
       id="path929"
       sodipodi:nodetypes="cssssc" />
    <path
       style="display:inline;opacity:1;fill:#007218;fill-opacity:1;stroke:none;stroke-width:0.264583px;stroke-linecap:butt;stroke-linejoin:miter;stroke-opacity:1;filter:url(#filter941)"
       d="m 99.621683,107.343 c -7.815885,2.95269 -11.487304,3.87824 -15.88696,4.53708 -3.936561,0.58949 3.866729,16.45861 3.866729,16.45861 -0.30068,-8.05374 8.224592,-8.11624 12.020231,-20.99569 z"
       id="path935"
       sodipodi:nodetypes="cscc" />
    <path
       style="display:inline;opacity:1;fill:#007218;fill-opacity:1;stroke:none;stroke-width:0.264583px;stroke-linecap:butt;stroke-linejoin:miter;stroke-opacity:1;filter:url(#filter937)"
       d="m 108.48664,103.41571 c 3.14098,-0.82571 9.63057,-3.695997 12.03127,-7.412566 4.60019,-0.468837 6.86157,11.146006 11.6165,14.185286 -8.83136,-0.72118 -14.6305,-0.65531 -23.64777,-6.77272 z"
       id="path939"
       sodipodi:nodetypes="cccc" />
    <path
       style="display:inline;opacity:1;fill:#007218;fill-opacity:1;stroke:none;stroke-width:0.264583px;stroke-linecap:butt;stroke-linejoin:miter;stroke-opacity:1;filter:url(#filter933)"
       d="m 101.1316,106.67956 c 1.23446,0.33145 9.47074,12.41674 12.56311,30.17308 1.17994,6.77521 4.18135,10.00793 4.7495,9.91332 1.39959,-0.23307 4.81018,-2.4073 4.81018,-2.4073 -0.0718,-0.92458 -3.48096,-3.91547 -4.59391,-10.68977 -1.89415,-11.52931 -10.78477,-30.19984 -12.11275,-29.19138 -1.35257,1.02713 -5.41613,2.20205 -5.41613,2.20205 z"
       id="path941"
       sodipodi:nodetypes="csscssc" />
  </g>
  <g
     inkscape:groupmode="layer"
     id="layer2"
     inkscape:label="Layer 2"
     transform="translate(-0.23197135,-0.13594651)"
     style="display:inline" />
</svg>
